# xmcd
#
# Track frame offsets:
#	150
#	34576
#	98018
#	129300
#	158974
#	185351
#	216639
#	244488
#	275200
#	316449
#
# Disc length: 4722 seconds
#
# Revision: 3
# Processed by: cddbd v1.5.2PL0 Copyright (c) Steve Scherf et al.
# Submitted via: EasyCDDAExtractor 16.0.8.2
#
DISCID=9512700a
DTITLE=Άνευ ερμηνευτού - Jazz collection 06-Fuller Curtis
DYEAR=2010
DGENRE=Ξένη jazz
TTITLE0=It's all right with me
TTITLE1=Wheatleith hall
TTITLE2=I'll wlak alone
TTITLE3=Arabia
TTITLE4=Judy's dilemma
TTITLE5=Kachin'
TTITLE6=Bang bang
TTITLE7=Imagination
TTITLE8=Blues de funk
TTITLE9=Lido road
EXTD=
EXTT0=
EXTT1=
EXTT2=
EXTT3=
EXTT4=
EXTT5=
EXTT6=
EXTT7=
EXTT8=
EXTT9=
PLAYORDER=
